<svg width="40" height="40" viewBox="0 0 40 40" fill="none" xmlns="http://www.w3.org/2000/svg">
<path d="M30.2301 28.5875C30.6889 29.0463 30.6889 29.79 30.2307 30.2494C30.0012 30.4789 29.7003 30.5936 29.3995 30.5936C29.0987 30.5936 28.7987 30.4789 28.5688 30.25L20.0034 21.6916L11.4458 30.2492C11.2162 30.4788 10.916 30.5934 10.6151 30.5934C10.3143 30.5934 10.0143 30.4788 9.78443 30.2492C9.32564 29.7904 9.32564 29.0468 9.78443 28.588L18.3413 20.0311L9.7687 11.4657C9.3099 11.0069 9.3099 10.2632 9.76808 9.80378C10.2269 9.34499 10.9712 9.3456 11.43 9.80317L20.0033 18.3694L28.5688 9.80396C29.0276 9.34516 29.7712 9.34516 30.23 9.80396C30.6888 10.2628 30.6888 11.0064 30.23 11.4652L21.6653 20.0299L30.2301 28.5875ZM40 20C40 31.0278 31.0278 40 20 40C8.97219 40 0 31.0278 0 20C0 8.97219 8.97219 0 20 0C31.0278 0 40 8.97219 40 20ZM37.6504 20C37.6504 10.2679 29.7332 2.34905 19.9994 2.34905C10.2657 2.34905 2.3485 10.2671 2.3485 20C2.3485 29.7329 10.2665 37.6509 19.9994 37.6509C29.7324 37.6509 37.6504 29.7329 37.6504 20Z" fill="#CDBA6D"/>
</svg>
