<svg width="51" height="51" viewBox="0 0 51 51" fill="none" xmlns="http://www.w3.org/2000/svg">
<path d="M25.5214 0.332031C25.8883 0.334758 25.7245 0.331642 26.0135 0.338653C26.7485 0.362413 27.3481 0.453552 27.9186 0.661943C28.1757 0.756203 28.3636 0.845396 28.5522 0.988734C28.8635 1.22477 29.0823 1.55858 29.1468 1.98786C29.1536 2.03421 29.1575 2.08095 29.1575 2.12769C29.16 2.636 29.1589 2.38048 29.16 2.89385H42.0929C42.3468 2.89385 42.5858 3.02394 42.9063 3.78542C42.9063 3.86099 42.9063 3.86099 42.907 4.16286C42.9077 4.54029 42.9077 4.54029 42.9084 4.99289C42.9095 5.44589 42.9095 5.44589 42.9102 5.82331C42.9106 5.98379 42.9106 5.98379 42.9106 6.09713C42.9109 6.1431 42.9109 6.1431 42.9109 6.17348V6.19373V6.20074C42.8978 6.51975 42.7592 6.84771 42.4783 6.9782C42.7524 7.63023 43.0265 8.28185 43.3006 8.93387C44.2814 11.267 45.2635 13.6067 46.1829 15.7993C49.0238 22.5748 50.4275 25.9472 50.4941 26.1974C50.5502 26.4082 50.5881 27.0006 50.5874 27.5548C50.586 28.344 50.5158 28.9816 50.3179 29.4412C49.2266 31.9792 47.7473 33.8769 45.6862 35.029C42.5787 36.7581 38.9124 36.7031 35.6261 34.8908C34.222 34.0966 32.5548 32.3021 31.9208 30.8785C31.3135 29.4997 31.183 29.0365 31.1018 27.9077C31.0578 27.3453 31.1146 26.7891 31.2347 26.2621C31.267 26.1203 31.3018 25.991 31.3369 25.8749C31.3596 25.8009 31.3787 25.744 31.3925 25.707L31.3996 25.6879L31.4074 25.6689V25.6685C31.4078 25.6677 31.4071 25.6696 31.4078 25.6677C31.4081 25.6669 31.4081 25.6669 31.4088 25.6654C31.4106 25.6611 31.4106 25.6611 31.4135 25.6544C31.4202 25.6377 31.4202 25.6377 31.4312 25.612C31.4585 25.5466 31.4585 25.5466 31.5003 25.4461C31.6053 25.1944 31.6053 25.1944 31.7631 24.817C32.151 23.8877 32.151 23.8877 32.7002 22.5712C33.4643 20.7405 34.4936 18.2741 35.5449 15.7556C36.6264 13.165 37.6436 10.7278 38.3897 8.94036C38.6442 8.33001 38.8992 7.71927 39.1541 7.10853H29.1576V42.9794H38.5205C39.6187 42.9794 40.5086 43.957 40.5086 45.1633V49.4385C40.5086 49.932 40.1444 50.332 39.6959 50.332H30.4337H11.9066C11.646 50.332 11.646 50.332 11.591 49.4385V50.332C11.1418 50.332 10.7776 49.932 10.7776 49.4385V45.1633C10.7776 43.957 11.6679 42.9794 12.7657 42.9794H21.9934V7.10853H12.28C12.5297 7.73641 12.7793 8.36432 13.0289 8.99181C14.2752 12.1266 14.2752 12.1266 15.7704 15.888C16.8352 18.5658 17.8042 21.0034 18.5123 22.7838C19.0417 24.1158 19.0417 24.1158 19.4158 25.0561C19.5675 25.4382 19.5675 25.4382 19.6689 25.6926C19.709 25.7942 19.709 25.7942 19.7356 25.8604C19.7459 25.8865 19.7459 25.8865 19.7526 25.9033C19.7551 25.9103 19.7551 25.9103 19.7569 25.9146C19.7576 25.9161 19.7576 25.9161 19.7579 25.9169C19.7583 25.9177 19.7583 25.9177 19.7583 25.9177V25.9181L19.7129 25.9485C19.7569 25.9983 19.7225 25.9582 19.8062 26.0782C19.8161 26.1261 19.8299 26.2024 19.8452 26.3037C19.8696 26.4654 19.8909 26.6441 19.9062 26.8366C19.9505 27.3916 19.9395 27.9556 19.8491 28.5083C19.5597 30.2335 18.8407 31.6688 17.5742 33.0749C13.5669 37.4623 6.50837 37.3354 2.62249 32.8011C1.77967 31.8106 1.11978 30.6226 0.804265 29.3072C0.648612 28.6283 0.593297 27.9272 0.587623 27.2288C0.584432 26.7996 0.614571 26.3528 0.75711 25.9497C0.760656 25.9419 0.763847 25.9341 0.767393 25.9263C0.796467 25.8628 2.45872 21.7944 4.89182 15.8343C5.7857 13.6441 6.74163 11.3013 7.69471 8.96579C7.95887 8.31766 8.22338 7.66912 8.48789 7.02098C8.16205 6.90296 8.0234 6.56876 7.98972 6.21938V6.2186V6.21354V6.19328C7.98936 6.16251 7.98936 6.16251 7.98936 6.11616C7.98865 6.00243 7.98865 6.00243 7.98795 5.84117C7.98582 5.46179 7.98582 5.46179 7.98369 5.00685C7.98121 4.55152 7.98121 4.55152 7.97944 4.17253C7.97766 3.8691 7.97766 3.8691 7.97766 3.79315C7.97483 3.2977 8.33968 2.89456 8.79069 2.89456H21.9896C21.9889 2.61373 21.9896 2.87041 21.9932 2.12451C21.9935 2.07855 21.9974 2.03259 22.0042 1.98701C22.0853 1.45028 22.4027 1.06661 22.8487 0.814984C23.1359 0.65295 23.4731 0.546227 23.8664 0.471442C24.0752 0.431712 24.2894 0.403279 24.5294 0.379518C24.645 0.368223 24.9478 0.342904 24.979 0.339788H24.9801C25.0021 0.337841 25.0244 0.336283 25.0464 0.336283C25.0772 0.335893 25.0772 0.335893 25.1081 0.335504C25.3499 0.333556 25.212 0.334335 25.5215 0.332777L25.5214 0.332031ZM25.7093 1.22634L25.0533 1.22907C24.5388 1.28009 22.9277 1.33072 22.8064 2.13272C22.7982 3.00832 22.8064 3.78736 22.8064 3.78736H8.79054L8.80295 6.21478H9.70746C9.70746 6.21478 1.58142 26.1365 1.49483 26.326C1.33421 26.7057 1.38349 28.1976 1.5934 29.0922C1.81571 30.1096 2.44543 31.303 3.21056 32.1845C6.79063 36.3612 13.3215 36.4695 16.9995 32.442C18.1475 31.1671 18.7894 29.8927 19.0485 28.3467C19.2216 27.2889 19.0124 26.2757 19.0124 26.2757L11.0367 6.21538H22.8059V43.8731H12.7649C12.1161 43.8731 11.5903 44.4511 11.5903 45.1639V49.4391H39.6955V45.1639C39.6955 44.4511 39.1693 43.8731 38.5205 43.8731H28.3442V6.21538H40.4212L32.1462 26.0414C32.1462 26.0414 31.8374 26.8823 31.9115 27.8315C31.9856 28.8622 32.0969 29.2283 32.6522 30.4891C33.2078 31.7371 34.7509 33.3912 35.9979 34.0967C39.0469 35.7782 42.4415 35.8323 45.3182 34.2323C47.4048 33.0661 48.7047 31.1003 49.5823 29.06C49.878 28.3726 49.7539 26.6007 49.7131 26.4484C49.6054 26.043 41.2559 6.20266 41.2559 6.20266L42.0973 6.20343L42.0927 3.78808H28.3446C28.3446 3.78808 28.3506 3.34288 28.3446 2.13344C28.2896 1.76887 27.9489 1.6154 27.6621 1.51062C27.0313 1.2664 26.3686 1.26601 25.7094 1.22705L25.7093 1.22634ZM40.8471 8.00485C48.4668 26.1766 48.6271 26.2723 48.5161 26.4079H33.3193L40.8469 8.00485H40.8471ZM40.8566 10.1615C40.7088 10.5234 40.5609 10.8849 40.4131 11.2463C39.6844 13.0267 38.7394 15.3373 37.8254 17.5722C36.8102 20.0542 35.9011 22.2767 35.2377 23.8985C35.0172 24.4368 34.797 24.9756 34.5768 25.5142H47.3355C47.2014 25.194 47.0663 24.8746 46.9313 24.5549C46.131 22.6658 45.33 20.7766 44.5308 18.8864C43.3026 15.9802 42.0779 13.0715 40.8567 10.1614L40.8566 10.1615ZM10.3514 7.40537L17.8882 26.4077H2.68506L10.3513 7.40537H10.3514ZM10.3454 9.62599C10.1958 9.9964 10.0465 10.3664 9.89723 10.7365C9.21362 12.4312 8.27825 14.75 7.26207 17.2685C6.30581 19.639 5.347 22.0154 4.62692 23.8005C4.39644 24.3719 4.16598 24.9433 3.9355 25.5144H16.647C16.4197 24.9414 16.1924 24.3685 15.9655 23.7955C15.2716 22.0467 14.3352 19.6855 13.3746 17.2635C12.3925 14.7878 11.4646 12.4485 10.7838 10.7315C10.6377 10.363 10.4916 9.99457 10.3455 9.62609L10.3454 9.62599Z" fill="#CDBA6D"/>
<path d="M0.802734 29.3005L0.804153 29.3068L0.805926 29.3149L0.802734 29.3005Z" fill="#CDBA6D"/>
</svg>
