<svg width="51" height="51" viewBox="0 0 51 51" fill="none" xmlns="http://www.w3.org/2000/svg">
<path d="M50.2909 11.1635C50.1439 11.0525 49.9472 10.996 49.746 11.0032C49.303 11.0219 48.86 11.0313 48.4134 11.0313H48.4116C39.0458 11.0313 30.1069 7.08956 26.1677 1.22264C25.911 0.841476 25.1278 0.841476 24.872 1.22264C20.5056 7.72557 11.2769 11.5607 1.3081 10.9621C1.10915 10.9495 0.903444 11.0068 0.75457 11.117C0.604795 11.228 0.519531 11.384 0.519531 11.5475V24.6875C0.519531 43.2884 24.2082 51.4941 25.9451 50.9075C40.8787 46.4502 50.5195 36.1738 50.5195 24.6875V11.589C50.5195 11.4273 50.4361 11.2738 50.289 11.1628L50.2909 11.1635ZM25.5618 11.0147C25.7756 11.0835 25.896 11.0623 26.049 11.0248C30.0735 11.2183 32.7134 13.7747 32.7134 16.5935V18.3455H18.3306V16.5917C18.3306 13.0163 21.9396 11.0201 25.5621 11.0146L25.5618 11.0147ZM1.98975 24.6877V12.1722C11.5593 12.5393 20.2759 9.07169 25.1021 3.18624V9.95C20.9581 10.1481 16.9779 12.5511 16.9779 16.593V18.345C16.1158 18.345 15.4256 18.4326 14.6438 18.8552C13.6481 19.3912 12.9926 20.2981 12.9926 21.3255V26.2321H2.07059C2.02954 25.7187 1.98939 25.206 1.98939 24.6872L1.98975 24.6877ZM25.2292 49.6875C12.2842 45.7083 3.57885 37.1812 2.2034 27.4058H12.9919V34.9419C12.9919 36.5851 14.6705 37.9218 16.7331 37.9218H25.2286L25.2292 49.6875ZM25.964 36.7966C25.8612 36.7966 25.7642 36.8139 25.6758 36.8434H16.7282C15.4141 36.8434 14.3449 35.9896 14.3449 34.9401V32.4531H18.1772C18.5494 32.4531 18.8512 32.2121 18.8512 31.9149C18.8512 31.6176 18.5485 31.3766 18.1772 31.3766H14.3449V27.0382C14.3792 26.9701 14.4008 26.8966 14.4008 26.8192C14.4008 26.7417 14.3801 26.6675 14.3449 26.6001V24.6093H18.1772C18.5494 24.6093 18.8512 24.3682 18.8512 24.071C18.8512 23.7738 18.5485 23.5328 18.1772 23.5328H14.3449V21.325C14.3449 20.6769 14.7536 20.1051 15.3748 19.7614C15.761 19.5485 16.2283 19.4224 16.7318 19.4224H32.7151C33.0923 19.4224 34.4262 19.4011 34.7908 19.4606C35.8744 19.6389 36.6927 20.4067 36.6927 21.3246V23.5324H32.8604C32.4882 23.5324 32.1865 23.7735 32.1865 24.0707C32.1865 24.3679 32.4892 24.6089 32.8604 24.6089H36.6927V26.6833C36.6553 26.7536 36.6341 26.8314 36.6341 26.9125C36.6341 26.9939 36.6548 27.0714 36.6927 27.1416V31.3759H32.8604C32.4882 31.3759 32.1865 31.6169 32.1865 31.9141C32.1865 32.2113 32.4892 32.4524 32.8604 32.4524H36.6927V34.9393C36.6927 35.9888 35.6236 36.8427 34.3094 36.8427H26.2507C26.1636 36.8135 26.0666 36.7966 25.9637 36.7966L25.964 36.7966ZM26.6989 49.3924V37.9218H34.3125C36.37 37.9218 38.045 36.5852 38.045 34.9419V27.4998H48.8218C47.4373 37.0087 39.1091 45.3149 26.6991 49.3924H26.6989ZM49.0514 24.6877C49.0514 25.2379 49.0112 25.7826 48.9652 26.3256L38.0454 26.3259V21.3253C38.0454 19.8291 36.6375 18.3445 34.066 18.3445C34.066 16.5071 34.1463 15.7879 33.6889 14.6203C33.6681 14.5663 33.4363 14.0641 33.4164 14.0255C32.0829 11.4871 29.3938 10.1987 26.572 9.97174V3.8914C31.3029 8.94135 39.6855 12.2043 48.4117 12.2054C48.6666 12.1921 48.838 12.204 49.0505 12.1993V24.6881L49.0514 24.6877Z" fill="#CDBA6D"/>
<path d="M25.6612 23.9648C23.8287 23.9648 22.3364 25.1552 22.3364 26.6193C22.3364 27.409 22.7704 28.1407 23.5192 28.6423L22.7095 31.6494C22.6662 31.8083 22.7162 31.9751 22.8448 32.1008C22.9734 32.2277 23.1651 32.3004 23.369 32.3004H27.952C28.1559 32.3004 28.3481 32.2269 28.4762 32.1008C28.6048 31.974 28.6544 31.8083 28.6116 31.6494L27.8022 28.6423C28.5511 28.1408 28.9851 27.4091 28.9851 26.6193C28.9837 25.1552 27.4937 23.9648 25.6612 23.9648H25.6612ZM26.3911 28.5266L27.1174 31.2247H24.2032L24.9295 28.5266C24.9891 28.3043 24.8677 28.0759 24.6259 27.9563C24.0358 27.6638 23.6853 27.1644 23.6853 26.6197C23.6853 25.7504 24.5713 25.0421 25.6607 25.0421C26.7493 25.0421 27.6353 25.7497 27.6353 26.6197C27.6353 27.1644 27.2843 27.6638 26.6947 27.9563C26.452 28.0748 26.3302 28.3032 26.3911 28.5266H26.3911Z" fill="#CDBA6D"/>
</svg>
