<svg width="51" height="51" viewBox="0 0 51 51" fill="none" xmlns="http://www.w3.org/2000/svg">
<path d="M34.5126 11.8948C33.5091 11.4303 31.9653 10.9658 29.8811 10.9658C27.6039 10.9658 25.8671 11.8077 25.8671 13.1141C25.8671 14.6236 27.7969 15.1752 30.6916 15.901C34.2425 16.7719 36.9827 17.875 36.9827 20.4878C36.9827 21.9974 36.0178 23.1005 34.474 24.0004C35.1301 24.4068 35.9406 25.3648 35.9406 26.555C35.9406 29.6032 32.1969 30.9096 28.6074 30.9096C26.253 30.9096 24.0145 30.5032 22.5478 29.6903L23.4741 28.0356C24.4003 28.5291 26.2916 29.2259 28.5687 29.2259C31.0388 29.2259 32.8913 28.384 32.8913 26.8454C32.8913 25.481 31.7721 24.7551 28.1827 23.8262C24.2073 22.8101 21.467 21.736 21.467 19.2394C21.467 18.1362 22.239 16.8298 24.2846 15.8428C23.5127 15.3783 22.8951 14.3913 22.8565 13.4043C22.8565 10.8496 26.0214 9.28198 29.9967 9.28198C32.1581 9.28198 34.0108 9.68841 35.323 10.24L34.5126 11.8948ZM28.2986 21.6785C30.2671 22.2011 31.8109 22.6365 32.6986 23.0719C33.6635 22.5494 34.1653 21.7365 34.1653 20.8366C34.1653 19.7334 33.239 18.8044 30.7303 18.1367C29.1864 17.7013 27.218 17.2078 25.9829 16.6562C24.7478 17.3239 24.2075 18.0496 24.2075 18.9205C24.2075 19.9656 25.2496 20.8365 28.2987 21.6784L28.2986 21.6785Z" fill="#CDBA6D"/>
<path d="M50.5928 0.0700684H7.32995V0.0728332C3.68841 0.125825 0.73427 2.32242 0.611155 5.05129H0.605029V5.22639V5.2287L0.622793 44.4082H0.625856C0.604413 44.5741 0.592773 44.7418 0.592773 44.9114C0.592773 47.7292 3.61247 50.0254 7.34529 50.0682V50.0701H7.44882H7.45066L49.5357 50.0567V50.0701L50.5906 50.0696V50.0562L50.59 49.2637L50.5857 40.5459H50.59L50.5928 0.0700684ZM8.38544 0.863568H49.5373V10.7131H49.5189L49.5324 39.7536H8.38525L8.38544 0.863568ZM7.45179 40.5468H49.5337L49.5343 42.4545H2.65954C3.70593 41.3039 5.46359 40.5468 7.45272 40.5468H7.45179ZM1.65079 44.97H49.5355L49.5368 47.2275H2.53657C1.98826 46.5713 1.6654 45.7986 1.65131 44.97H1.65079ZM1.65141 44.841C1.66917 44.012 1.9951 43.2392 2.54707 42.5835H49.5347L49.5359 44.841H1.65141ZM7.33054 0.866187V39.7555C4.95905 39.7869 2.87785 40.7273 1.67776 42.1337L1.6606 5.22615C1.66244 2.85448 4.19317 0.919979 7.33048 0.866069L7.33054 0.866187ZM7.45185 49.2776V49.2767C5.45534 49.2767 3.69095 48.5141 2.64628 47.3561H49.5367L49.5373 49.2643L7.45185 49.2776Z" fill="#CDBA6D"/>
<path d="M48.7592 43.0857H38.6116V43.3437H40.2547V45.8016H40.2578L41.9701 47.0896L43.6824 45.8016H43.6886L45.4009 47.0896L47.1132 45.8016H47.1163V43.3437H48.7594L48.7592 43.0857Z" fill="#CDBA6D"/>
</svg>
