<svg width="40" height="40" viewBox="0 0 40 40" fill="none" xmlns="http://www.w3.org/2000/svg">
<path d="M31.369 10.4512L20.788 5.91643C20.2849 5.70081 19.7154 5.70081 19.2123 5.91643L8.63128 10.4512C7.81204 10.8023 7.32401 11.6531 7.43456 12.5375L8.71421 22.7747C8.93436 24.5359 9.81534 26.1478 11.1789 27.284L18.7198 33.5681C19.4615 34.1862 20.5388 34.1862 21.2805 33.5681L28.8215 27.284C30.185 26.1478 31.066 24.5359 31.2861 22.7747L32.5658 12.5375C32.6763 11.6531 32.1883 10.8023 31.369 10.4512Z" stroke="#CDBA6D" stroke-width="2" stroke-linecap="round"/>
<path d="M14.9998 20L19.5686 24.5687C19.7917 24.7918 20.1631 24.7551 20.3382 24.4925L26.6665 15" stroke="#CDBA6D" stroke-width="2" stroke-linecap="round"/>
</svg>
