<svg width="41" height="51" viewBox="0 0 41 51" fill="none" xmlns="http://www.w3.org/2000/svg">
<path fill-rule="evenodd" clip-rule="evenodd" d="M0.742877 0.602051C0.558812 0.612355 0.399506 0.764155 0.399506 0.928633V44.2687C0.399506 44.4395 0.57411 44.5953 0.765824 44.5953H6.71563V50.0024C6.70798 50.2684 7.15891 50.4265 7.35646 50.2268L11.201 46.3296L14.9308 50.4923C15.113 50.719 15.6081 50.5668 15.5946 50.2882V44.5953H40.0332C40.2249 44.5953 40.3995 44.4395 40.3995 44.2687V0.928653C40.3995 0.757834 40.2249 0.602071 40.0332 0.602071H0.743383L0.742877 0.602051ZM1.1317 1.25521H39.6669V43.9429H15.5935C15.5944 42.9413 15.6029 41.9133 15.5705 40.9228C16.7014 39.9145 17.4013 38.5293 17.4013 36.9845C17.4013 33.9165 14.6193 31.4343 11.154 31.4343C7.71361 31.4343 4.88427 33.9149 4.88427 36.9845C4.88427 38.5301 5.60386 39.9146 6.73793 40.9228C6.73073 41.9025 6.71498 42.9414 6.71498 43.9429H1.13153L1.1317 1.25521ZM11.1546 32.0872C14.2283 32.0872 16.6692 34.2682 16.6692 36.9843C16.6692 39.7249 14.2278 41.902 11.1546 41.902C8.10845 41.902 5.61712 39.7233 5.61712 36.9843C5.61712 34.2698 8.10891 32.0872 11.1546 32.0872ZM7.44774 41.4735C9.83688 42.8112 12.7009 42.8587 14.8618 41.4735V49.3498L11.5208 45.6156C11.3912 45.4582 11.092 45.4475 10.9489 45.595L7.44765 49.1453L7.44774 41.4735Z" fill="#CDBA6D"/>
<path fill-rule="evenodd" clip-rule="evenodd" d="M6.50202 4.21826C6.01824 4.225 6.05245 4.86944 6.50202 4.87102H34.3162C34.781 4.87617 34.7563 4.22223 34.3162 4.21826H6.50202Z" fill="#CDBA6D"/>
<path fill-rule="evenodd" clip-rule="evenodd" d="M6.50202 11.4834C5.99214 11.4822 6.06144 12.15 6.50202 12.1362H34.3162C34.7837 12.1389 34.7648 11.4949 34.3162 11.4834H6.50202Z" fill="#CDBA6D"/>
<path fill-rule="evenodd" clip-rule="evenodd" d="M6.50201 18.6794C6.00519 18.6862 6.06999 19.35 6.50201 19.3322H34.3162C34.7698 19.335 34.7419 18.6858 34.3162 18.6794H6.50201Z" fill="#CDBA6D"/>
<path fill-rule="evenodd" clip-rule="evenodd" d="M6.50202 24.8794C6.05335 24.8794 6.07719 25.5337 6.50202 25.5322H34.3162C34.7752 25.5322 34.7792 24.8881 34.3162 24.8794H6.50202Z" fill="#CDBA6D"/>
<path fill-rule="evenodd" clip-rule="evenodd" d="M18.6447 31.6116C18.1776 31.6116 18.223 32.2631 18.6447 32.2643H32.5512C33.0395 32.2734 32.9787 31.6132 32.5512 31.6116H18.6447Z" fill="#CDBA6D"/>
</svg>
