<svg width="51" height="51" viewBox="0 0 51 51" fill="none" xmlns="http://www.w3.org/2000/svg">
<path d="M25.3887 15.1899C23.5527 15.1899 22.0591 16.657 22.0591 18.46C22.0591 20.2637 23.5524 21.731 25.3887 21.731C27.2239 21.731 28.7164 20.2639 28.7164 18.46C28.7168 16.657 27.2235 15.1899 25.3887 15.1899V15.1899ZM25.3887 20.5586C24.2102 20.5586 23.2521 19.6173 23.2521 18.4596C23.2521 17.3026 24.2102 16.3614 25.3887 16.3614C26.5657 16.3614 27.5237 17.3026 27.5237 18.4596C27.524 19.6173 26.5656 20.5586 25.3887 20.5586Z" fill="#CDBA6D"/>
<path d="M6.49489 5.68845C6.88771 5.74456 7.22012 5.41116 7.1685 5.0292C6.90601 3.13924 8.40007 1.65633 10.1503 1.65633C11.898 1.65633 13.2676 3.10002 13.1632 4.76339C13.1482 5.00795 13.2895 5.23598 13.5172 5.33524C13.7438 5.43306 14.011 5.38379 14.186 5.20792C15.6596 3.72289 18.2581 5.09715 17.688 7.16877C17.6101 7.45398 17.7594 7.75141 18.0373 7.86327C18.7768 8.16179 19.2827 8.86381 19.3238 9.65296C19.3406 9.96406 19.6028 10.2075 19.9194 10.2075H21.0667C21.3959 10.2075 21.6631 9.945 21.6631 9.62167C21.6631 9.29834 21.3959 9.03579 21.0667 9.03579H20.4345C20.2342 8.1888 19.6902 7.45003 18.9339 6.9998C19.2681 4.4229 16.496 2.66525 14.2648 3.72582C13.8368 1.81101 12.0946 0.484619 10.1503 0.484619C7.91563 0.484619 6.00357 2.21419 5.94612 4.48901C3.48017 4.55374 1.6354 6.65122 1.89462 9.03652H0.839529C0.510414 9.03652 0.243164 9.29908 0.243164 9.6224C0.243164 9.94573 0.510414 10.2083 0.839529 10.2083H2.62095C2.80875 10.2083 2.98594 10.1209 3.0987 9.97307C3.21146 9.82525 3.2466 9.63319 3.19242 9.45588C2.57922 7.41732 4.23983 5.38677 6.49491 5.68849L6.49489 5.68845Z" fill="#CDBA6D"/>
<path d="M50.2431 8.01189C50.2431 3.95889 46.0381 0.662354 40.8692 0.662354C35.7011 0.662354 31.4963 3.95898 31.4963 8.01189C31.4963 10.514 33.1408 12.8568 35.8151 14.2016C35.8096 14.9295 35.4446 15.5906 34.7663 16.1826L25.7433 9.60418C25.5317 9.45025 25.2432 9.45025 25.0316 9.60418L5.716 23.682C5.50916 23.8327 5.42496 24.0966 5.50513 24.3365C5.58641 24.5764 5.81448 24.739 6.07148 24.739H8.28776V26.0701C8.28776 26.9599 8.9405 27.9255 10.3561 27.9255V43.2205C8.98991 43.2205 8.28776 44.1376 8.28776 45.0759V46.4062H4.20037C3.87125 46.4062 3.604 46.6688 3.604 46.9921V49.8988C3.604 50.2222 3.87125 50.4847 4.20037 50.4847H46.5728C46.902 50.4847 47.1692 50.2222 47.1692 49.8988V46.9921C47.1692 46.6688 46.902 46.4062 46.5728 46.4062H42.4862V45.0759C42.4862 44.1495 41.7976 43.2205 40.4171 43.2205L40.4174 27.9237C41.7866 27.9237 42.4866 27.0018 42.4866 26.0682V24.7371H44.7011H44.7168C45.0466 24.7371 45.3132 24.4746 45.3132 24.1513C45.3132 23.9207 45.1781 23.7215 44.9815 23.6262L37.2584 17.9943C38.6181 17.4646 39.9986 16.5834 41.3792 15.3537C46.3694 15.1397 50.2426 11.9506 50.2426 8.01209L50.2431 8.01189ZM20.7795 24.7377V26.0687C20.7795 26.9585 21.433 27.9242 22.8487 27.9242V43.2191H22.6674C21.6267 43.2191 20.7795 44.051 20.7795 45.0746V46.4049H17.5066V45.0746C17.5066 44.1481 16.818 43.2191 15.4375 43.2191V27.9232C16.8066 27.9232 17.5066 27.0014 17.5066 26.0678V24.7367L20.7795 24.7364L20.7795 24.7377ZM28.8046 46.404H21.9723V45.0736C21.9723 44.6971 22.2838 44.3899 22.6671 44.3899H28.1094C28.4927 44.3899 28.8054 44.696 28.8054 45.0736V46.404H28.8046ZM26.7355 43.2189H24.0407V27.9239H26.7355V43.2189ZM21.9723 26.0686V24.739H28.8046V26.0686C28.8046 26.4452 28.492 26.7524 28.1087 26.7524C22.6671 26.7513 21.9722 27.0092 21.9722 26.0686H21.9723ZM9.48135 26.0686V24.739H16.3137V26.0686C16.3137 26.4452 16.0011 26.7524 15.6177 26.7524C9.94734 26.7513 9.48128 26.9523 9.48128 26.0686H9.48135ZM11.5497 27.9234H14.2446V43.2184L11.5497 43.218V27.9234ZM9.48135 45.0736C9.48135 44.2159 9.90528 44.3899 15.6178 44.3899C16.0011 44.3899 16.3138 44.696 16.3138 45.0736V46.404H9.48143L9.48135 45.0736ZM45.9776 49.3111H4.79819V47.5761H45.9795L45.9787 49.3111H45.9776ZM41.2957 45.0736V46.404H34.4633V45.0736C34.4633 44.2159 34.9985 44.3899 40.5998 44.3899C40.9831 44.391 41.2957 44.6971 41.2957 45.0736H41.2957ZM39.2265 43.2189H36.5317L36.5313 27.9239H39.2262L39.2265 43.2189ZM41.2957 26.0686C41.2957 26.9257 40.7597 26.7524 35.1585 26.7524C34.7752 26.7524 34.4637 26.4463 34.4637 26.0686V24.739H41.296L41.2957 26.0686ZM35.3387 27.9234V43.2184C33.9724 43.2184 33.2695 44.1355 33.2695 45.0738V46.4042H29.9966V45.0738C29.9966 44.0514 29.1499 43.2184 28.108 43.2184H27.9275V27.9234C29.2967 27.9234 29.9967 27.0016 29.9967 26.068V24.7369H33.2695V26.068C33.2706 26.9578 33.9234 27.9234 35.3387 27.9234H35.3387ZM7.87697 23.5655L25.3875 10.8034L33.7451 16.8977C33.5265 17.0189 33.2959 17.1369 33.0455 17.2484C32.8108 17.3531 32.6647 17.5868 32.6731 17.8397C32.6834 18.0929 32.8481 18.3148 33.089 18.4015C33.6217 18.5921 34.6024 18.6748 35.8358 18.4148L42.8988 23.5654L7.87697 23.5655ZM40.6769 14.2948C39.229 15.6125 37.4469 16.8322 35.5135 17.2166C37.4125 15.647 37.3169 13.519 36.6912 13.2341C34.2326 12.1123 32.7646 10.1601 32.7646 8.01088C32.7646 4.64556 36.4002 1.90716 40.8684 1.90716C45.3373 1.90716 48.973 4.6452 48.973 8.01088C48.973 11.3312 45.5178 14.0114 41.1228 14.1139C40.9519 14.1142 40.7937 14.1836 40.6769 14.2948L40.6769 14.2948Z" fill="#CDBA6D"/>
<path d="M40.9338 7.24621H40.91V5.77739C41.3156 5.83206 41.6971 5.98815 42.0471 6.23056L42.556 5.51196C42.0391 5.16058 41.4903 4.96529 40.9101 4.92608V4.52759H40.4012V4.91818C39.8843 4.94155 39.471 5.098 39.1448 5.3868C38.8267 5.67596 38.6678 6.04317 38.6678 6.48844C38.6678 6.94161 38.8109 7.27752 39.0892 7.51164C39.3597 7.73821 39.8049 7.9256 40.4012 8.06622V9.5739C39.9319 9.50376 39.471 9.27718 39.0254 8.89415L38.4448 9.5739C39.0254 10.0738 39.6774 10.3551 40.4008 10.4256V10.996H40.9097V10.4335C41.4504 10.4101 41.8799 10.2536 42.206 9.96484C42.5399 9.68359 42.6992 9.30847 42.6992 8.85565C42.6992 8.40248 42.556 8.0511 42.2697 7.81662C41.9915 7.57422 41.5383 7.38683 40.9339 7.24621H40.9338ZM40.4012 7.10559C40.1068 7.01172 39.9003 6.9103 39.7967 6.80887C39.6935 6.70744 39.6379 6.57437 39.6379 6.39491C39.6379 6.22299 39.7016 6.07445 39.8366 5.95756C39.9717 5.84032 40.1628 5.77774 40.4012 5.75436V7.10559ZM41.5145 9.37893C41.3633 9.5041 41.1645 9.57423 40.91 9.5976V8.19922C41.2282 8.29309 41.4427 8.3866 41.562 8.49594C41.6733 8.60527 41.737 8.74589 41.737 8.92573C41.737 9.11311 41.6576 9.26164 41.5145 9.3789V9.37893Z" fill="#CDBA6D"/>
</svg>
