<svg width="50" height="50" viewBox="0 0 50 50" fill="none" xmlns="http://www.w3.org/2000/svg">
<path d="M11.411 30.8002C12.2297 31.6173 13.5601 31.618 14.3796 30.8002C15.0626 30.1198 15.1668 29.0867 14.71 28.2884L15.8069 27.1957C16.6627 27.6091 17.7203 27.4731 18.4331 26.762L20.1004 25.1009L44.0767 48.9877C45.43 50.3369 47.6342 50.3384 48.9918 48.9863C50.3363 47.6371 50.3363 45.4429 48.9903 44.093L25.014 20.2053L26.8919 18.3345C27.6032 17.6259 27.7437 16.573 27.3272 15.7182L28.4165 14.633C29.2171 15.0895 30.2508 14.9875 30.9385 14.3031C31.7562 13.4875 31.7562 12.1614 30.9385 11.3457L20.1415 0.592214C19.3482 -0.197405 17.9663 -0.197405 17.1729 0.592214C16.4899 1.27333 16.3857 2.30678 16.8432 3.1047L15.747 4.19672C14.892 3.80462 13.8118 3.94207 13.127 4.62318L4.66858 13.0493C3.95476 13.7604 3.81824 14.813 4.23324 15.6656L3.13235 16.7631C2.33502 16.3279 1.27262 16.4307 0.615837 17.0875C-0.206914 17.9061 -0.203642 19.2293 0.615837 20.045L11.411 30.8002ZM48.153 44.9234C49.0411 45.8143 49.0411 47.264 48.1544 48.1535C47.2609 49.0437 45.8074 49.0437 44.9139 48.1535L20.9367 24.2667L24.1772 21.0384L48.153 44.9234ZM18.0104 1.42502C18.3691 1.06837 18.9471 1.06837 19.3055 1.42502L30.1025 12.1804C30.4591 12.5363 30.4591 13.1147 30.1018 13.4707C29.7573 13.8146 29.1552 13.8157 28.8078 13.4714L18.0108 2.71509C17.6542 2.35953 17.6542 1.78151 18.0104 1.42482L18.0104 1.42502ZM17.6226 3.99575L27.5217 13.8585L26.5871 14.7895L16.6871 4.92684L17.6226 3.99575ZM5.50571 13.8825L13.9652 5.45604C14.4031 5.01908 15.1096 5.02162 15.5457 5.45604L26.0565 15.9271C26.4925 16.3615 26.4943 17.0654 26.0565 17.5017L17.597 25.9278C17.175 26.3481 16.4383 26.3488 16.0164 25.9278L5.50571 15.4576C5.06965 15.0229 5.06893 14.3197 5.50571 13.8831V13.8825ZM4.96726 16.6026L14.8673 26.4653L13.9327 27.3964L4.03265 17.5337L4.96726 16.6026ZM1.45293 17.9207C1.81347 17.5626 2.38819 17.5655 2.74623 17.9192L13.5451 28.6774C13.9009 29.0333 13.9009 29.6117 13.5444 29.9665C13.1973 30.3105 12.5956 30.3105 12.2486 29.9665L1.45342 19.2112C1.09541 18.8552 1.0936 18.2794 1.45342 17.9209L1.45293 17.9207Z" fill="#CDBA6D"/>
<path d="M21.3873 42.377H4.73451C3.92919 42.377 3.27381 43.0299 3.27381 43.8322V45.4317C1.45516 45.6209 0.027832 47.139 0.027832 49.0003C0.027832 49.3255 0.292886 49.5896 0.619297 49.5896H25.5028H25.5184C25.908 49.5896 26.1879 49.2217 26.0917 48.8528C26.0191 47.0583 24.6194 45.615 22.8486 45.4302V43.8314C22.8479 43.0298 22.1925 42.377 21.3868 42.377L21.3873 42.377ZM4.45752 43.8322C4.45752 43.6799 4.58133 43.5555 4.73528 43.5555H21.3881C21.541 43.5555 21.6666 43.6796 21.6666 43.8322V45.3941H4.45793L4.45752 43.8322ZM24.8395 48.4111H1.2833C1.54109 47.3828 2.40706 46.5726 3.86553 46.5726H22.474C23.6134 46.5726 24.5741 47.356 24.8391 48.4111H24.8395Z" fill="#CDBA6D"/>
</svg>
